<svg width="23" height="22" viewBox="0 0 23 22" fill="none" xmlns="http://www.w3.org/2000/svg">
<path d="M12.4584 6.41665H10.5417V10.0833H6.70841V11.9166H10.5417V15.5833H12.4584V11.9166H16.2917V10.0833H12.4584V6.41665ZM11.5001 1.83331C6.21966 1.83331 1.91675 5.94915 1.91675 11C1.91675 16.0508 6.21966 20.1666 11.5001 20.1666C16.7805 20.1666 21.0834 16.0508 21.0834 11C21.0834 5.94915 16.7805 1.83331 11.5001 1.83331ZM11.5001 18.3333C7.27383 18.3333 3.83341 15.0425 3.83341 11C3.83341 6.95748 7.27383 3.66665 11.5001 3.66665C15.7263 3.66665 19.1667 6.95748 19.1667 11C19.1667 15.0425 15.7263 18.3333 11.5001 18.3333Z" fill="#1dc9ff"/>
</svg>
